<svg xmlns="http://www.w3.org/2000/svg" xmlns:xlink="http://www.w3.org/1999/xlink" width="500" zoomAndPan="magnify" viewBox="0 0 375 374.999991" height="500" preserveAspectRatio="xMidYMid meet" version="1.0"><defs><clipPath id="f2893ed346"><path d="M 37.5 69 L 210 69 L 210 241 L 37.5 241 Z M 37.5 69 " clip-rule="nonzero"/></clipPath><clipPath id="21d20a9a22"><path d="M 174 85 L 347.25 85 L 347.25 274 L 174 274 Z M 174 85 " clip-rule="nonzero"/></clipPath></defs><g clip-path="url(#f2893ed346)"><path fill="#5bc236" d="M 204.34375 184.992188 C 191.777344 201.289062 168.703125 208.574219 164.027344 231.15625 C 163.347656 231.355469 162.667969 231.539062 161.988281 231.722656 C 154.960938 234.09375 147.503906 234.34375 140.492188 232.601562 C 136.792969 231.6875 133.230469 230.210938 129.898438 228.203125 C 128.390625 224.320312 125.355469 221.285156 120.8125 219.109375 C 78.84375 254.289062 37.050781 242.722656 37.515625 203.976562 C 37.730469 184.992188 51.691406 176.496094 67.304688 167.367188 C 76.058594 162.257812 69.972656 152.730469 63.195312 156.582031 C 55.203125 161.113281 47.511719 166.390625 40.667969 172.5625 C 40.484375 171.617188 40.316406 170.652344 40.167969 169.675781 C 39.671875 166.539062 39.324219 163.320312 39.140625 159.984375 C 39.109375 149.878906 42.289062 139.921875 48.375 131.640625 C 55.882812 121.417969 67.121094 114.632812 79.589844 112.753906 C 83.382812 104.210938 94.457031 96.011719 112.808594 88.144531 C 123.582031 82.820312 136.128906 82.339844 147.253906 86.835938 C 182.0625 129.882812 148.464844 139.554688 114.449219 154.457031 C 98.667969 161.359375 83.78125 171.085938 78.410156 193.238281 C 75.824219 203.925781 87.328125 205.136719 89.367188 196.324219 C 93.097656 180.246094 102.863281 171.964844 119.007812 164.894531 C 136.3125 157.328125 162.753906 148.550781 170.792969 129.964844 C 178.550781 112.027344 167.128906 93.289062 156.121094 79.667969 L 155.011719 78.304688 C 163.929688 70.472656 176.113281 67.351562 187.75 70.042969 C 196.203125 71.984375 203.582031 76.796875 208.753906 83.464844 C 195.390625 94.683594 183.242188 108.441406 186.773438 127.324219 C 188.679688 137.53125 194.664062 145.796875 200.496094 154.09375 C 203.648438 158.574219 207.839844 164.429688 209.066406 169.824219 C 210.394531 175.617188 207.839844 180.511719 204.359375 185.007812 Z M 204.34375 184.992188 " fill-opacity="1" fill-rule="evenodd"/></g><path fill="#5bc236" d="M 117.648438 235.222656 C 132.136719 243.207031 149.058594 245.546875 165.15625 241.777344 C 166.433594 247.835938 160.796875 250.871094 153.769531 254.773438 C 129.335938 268.3125 144.039062 265.011719 130.097656 287.445312 C 117.996094 306.464844 82.554688 315.011719 75.710938 313.78125 C 70.054688 312.753906 91.9375 305.933594 91.6875 284.90625 C 91.488281 265.957031 90.742188 261.859375 80.21875 252.082031 C 94.523438 252.050781 108.132812 245.925781 117.648438 235.222656 Z M 117.648438 235.222656 " fill-opacity="1" fill-rule="evenodd"/><g clip-path="url(#21d20a9a22)"><path fill="#000000" d="M 185.148438 255.417969 C 168.917969 241.777344 171.769531 226.644531 193.683594 210.050781 C 264.53125 158.625 169.980469 143.023438 206.101562 101.621094 C 211.171875 95.8125 217.125 90.683594 224.402344 87.929688 C 233.617188 84.445312 244.011719 84.679688 253.246094 88.941406 C 266.058594 94.851562 274.460938 107.480469 274.941406 121.601562 C 286.015625 117.300781 298.597656 119.890625 307.101562 128.207031 C 315.589844 136.519531 318.457031 149.046875 314.410156 160.234375 C 325.980469 161.460938 336.292969 168.113281 342.195312 178.15625 C 347.714844 187.546875 348.773438 198.882812 345.144531 209.085938 L 345.09375 209.070312 C 344.714844 210.066406 344.265625 211.0625 343.785156 212.023438 C 338.496094 207.492188 331.519531 204.339844 323.363281 202.53125 L 321.753906 202.167969 L 321.390625 200.855469 L 321.375 200.824219 L 321.355469 200.789062 C 313.234375 172.925781 295.914062 160.316406 272.871094 161.492188 C 268.644531 161.859375 263.023438 162.871094 256.011719 164.496094 C 254.222656 165.011719 252.414062 165.609375 250.59375 166.257812 C 248.800781 166.902344 246.996094 167.601562 245.15625 168.363281 C 236.585938 171.933594 241.042969 182.453125 249.53125 178.886719 C 253.144531 177.375 256.59375 176.148438 259.890625 175.183594 C 262.078125 174.554688 264.21875 174.039062 266.273438 173.640625 C 290.441406 169.078125 305.675781 181.257812 312.007812 210.164062 C 324.589844 214.296875 338.316406 215.375 342.921875 228.984375 C 344.464844 233.53125 344.613281 238.558594 343.15625 243.386719 C 340.289062 252.914062 331.765625 259.617188 321.839844 260.148438 C 318.96875 266.871094 312.953125 271.730469 305.773438 273.09375 C 300.800781 274.054688 295.714844 273.242188 291.355469 270.917969 C 288.039062 268.03125 284.425781 265.921875 280.511719 264.597656 C 274.378906 270.089844 266.074219 272.609375 257.835938 271.316406 C 250.210938 270.121094 243.496094 265.824219 239.253906 259.550781 C 247.972656 245.644531 251.835938 235.371094 255.117188 219.390625 C 256.792969 211.246094 245.816406 207.84375 243.976562 217.070312 C 241.175781 231.207031 236.867188 247.984375 224.402344 256.214844 C 215.21875 262.289062 203.429688 263.75 192.757812 259.535156 C 190.003906 258.457031 187.46875 257.0625 185.148438 255.386719 Z M 185.148438 255.417969 " fill-opacity="1" fill-rule="evenodd"/></g></svg>